<?xml version="1.0" encoding="UTF-8"?>
<!--
  Square-viewBox version of capa_logo.svg, for use as a favicon
  (browsers slot favicons into a square box; the original 577 x 782
  aspect ratio leaves awkward letterboxing). Paths are identical to
  the main logo; only the viewBox is widened to be square so the
  figure is centred horizontally with light empty space on each side.
-->
<svg xmlns="http://www.w3.org/2000/svg" viewBox="-103 0 783 783">
  <path fill="#a885fa" d="M515.82,258.55c1.6,9.06-14.34-4.03-22.58-5.07-128.33-58.01-269.07,69.8-197.88,196.88,54.82,97.82,196.29,106.26,275.81,34.39,7.59-3.13,6.02,11.39,5.7,16.08,3.09,87.71-138.58,190.41-66.46,248.48,2.83,2.37,15.3,9.63,16,11.02,3.47,6.87-14.56,10.48-19.31,11.72-233.4,62-442.98-157.08-369.29-387.95-47,68.7-43.12,183.85-3.79,263.59.91,1.87,6.52,11.33,9.7,17.43.74,1.42-.95,2.87-2.23,1.91-20.32-15.17-40.98-28.25-64.64-38.16-21.07-8.82-65.58-18.79-76.15-39.85-11.95-141.41,132.91-331.75,245.19-408.17,27.89-10.82,56.49.72,81.86,13.37,9.26-.26-16.46-16.32-18.85-17.4-42.73-25.62-91.55,3.89-75.56-28.52,3.84-7.75,13.77-16.2,22-19,10.08-3.44,28.13-.72,16.54-16.46-5.41-7.34-16.48-14.32-24.64-18.36-6.77-3.35-33.51-10.83-32.19-19.41,61.39-110.77,222.44-79.82,314.35-28.77,26.38,17.14-27.13,108.94-38.71,131.34-46.28,52.42-2.25,17.23,25.13,80.91ZM530.68,69.52c.89,1.01,2.6.26,2.61-1.08.07-14.22-18.12-14.02-29.89-13.09-37.48,2.97-62.22,29.45-84.49,56.51-28.27,33.92-75.86,88.32-2.74,100.66,1.67.24,2.41-2.03.92-2.83l-8.44-4.52c-14.22-9.07-21.16-18.6-12.57-35.14,25.37-41.11,80.49-112.17,134.61-100.51Z"/>
  <path fill="#fdfdfe" d="M533.29,68.44c0,1.34-1.72,2.08-2.61,1.08-.07-.08-.15-.16-.24-.24-10.04-8.31-43.94,6.95-54.23,12.88-25.39,14.64-66.61,61.78-80.14,87.86-8.56,16.51-1.72,25.98,12.45,35.08.04.02.07.05.11.07l8.44,4.52c1.49.8.75,3.08-.92,2.83-19.72-2.89-41.34-12.65-39.32-35.73,1.36-15.52,31.22-51.76,42.07-64.93,22.27-27.06,47.01-53.54,84.49-56.51,11.77-.93,29.97-1.13,29.89,13.09Z"/>
</svg>
